# xmcd
#
# Track frame offsets: 
#        150
#        14496
#        29210
#        43784
#
# Disc length: 705 seconds
#
# Revision: 0
# Processed by: cddbd v1.5.1PL2 Copyright (c) Steve Scherf et al.
# Submitted via: ExactAudioCopy v0.95a5
#
DISCID=3302bf04
DTITLE=Maria Cordero - 監獄風雲
DYEAR=1987
DGENRE=Pop
TTITLE0=充滿希望
TTITLE1=要爭取快樂
TTITLE2=情驟變
TTITLE3=友誼之光
EXTD=
EXTT0=
EXTT1=
EXTT2=
EXTT3=
PLAYORDER=
